X Lossless Decoder version 20210101 (153.1)

XLD extraction logfile from 2021-08-15 18:55:25 +0900

Nozomu Sasaki (佐々木望) / 機動戦士ガンダム 閃光のハサウェイ (上) [Disc 5]

Used drive : PIONEER BD-RW   BDR-X12U (revision 1.03)
Media type : Pressed CD

Ripper mode             : XLD Secure Ripper
Disable audio cache     : OK for the drive with a cache less than 1375KiB
Make use of C2 pointers : NO
Read offset correction  : 667
Max retry count         : 20
Gap status              : Analyzed, Appended

TOC of the extracted CD
     Track |   Start  |  Length  | Start sector | End sector 
    ---------------------------------------------------------
        1  | 00:00:00 | 18:47:70 |         0    |    84594   
        2  | 18:47:70 | 14:37:27 |     84595    |   150396   
        3  | 33:25:22 | 11:34:45 |    150397    |   202491   
        4  | 44:59:67 | 12:33:51 |    202492    |   259017   
        5  | 57:33:43 | 09:46:54 |    259018    |   303021   

AccurateRip Summary
    Disc not found in AccurateRip DB.

All Tracks
    Filename : /Users/m4c/tmp/Nozomu Sasaki (佐々木望) - 機動戦士ガンダム 閃光のハサウェイ (上) [Disc 5].flac
    CRC32 hash               : 7FBA0EE9
    CRC32 hash (skip zero)   : 58B86B87
    Statistics
        Read error                           : 0
        Jitter error (maybe fixed)           : 0
        Retry sector count                   : 0
        Damaged sector count                 : 0

Track 01
    Pre-gap length : 00:02:00

    CRC32 hash               : 47A68C2E
    CRC32 hash (skip zero)   : 2EAB9FF4
    AccurateRip v1 signature : 899136C7
    AccurateRip v2 signature : 264A6D0C
        ->Track not present in AccurateRip database.
    Statistics
        Read error                           : 0
        Jitter error (maybe fixed)           : 0
        Retry sector count                   : 0
        Damaged sector count                 : 0

Track 02
    Pre-gap length : 00:01:42

    CRC32 hash               : BE7968C8
    CRC32 hash (skip zero)   : 63251560
    AccurateRip v1 signature : 6526FB45
    AccurateRip v2 signature : C03477B2
        ->Track not present in AccurateRip database.
    Statistics
        Read error                           : 0
        Jitter error (maybe fixed)           : 0
        Retry sector count                   : 0
        Damaged sector count                 : 0

Track 03
    Pre-gap length : 00:01:41

    CRC32 hash               : B7635E8C
    CRC32 hash (skip zero)   : 157D99FD
    AccurateRip v1 signature : 303A26A6
    AccurateRip v2 signature : C7FFB9E6
        ->Track not present in AccurateRip database.
    Statistics
        Read error                           : 0
        Jitter error (maybe fixed)           : 0
        Retry sector count                   : 0
        Damaged sector count                 : 0

Track 04
    Pre-gap length : 00:01:41

    CRC32 hash               : C62749E4
    CRC32 hash (skip zero)   : 9CDCE2F3
    AccurateRip v1 signature : 965C9785
    AccurateRip v2 signature : 856419F8
        ->Track not present in AccurateRip database.
    Statistics
        Read error                           : 0
        Jitter error (maybe fixed)           : 0
        Retry sector count                   : 0
        Damaged sector count                 : 0

Track 05
    Pre-gap length : 00:01:42

    CRC32 hash               : 962E7516
    CRC32 hash (skip zero)   : 7BC848D7
    AccurateRip v1 signature : D396FEAD
    AccurateRip v2 signature : 58EFE922
        ->Track not present in AccurateRip database.
    Statistics
        Read error                           : 0
        Jitter error (maybe fixed)           : 0
        Retry sector count                   : 0
        Damaged sector count                 : 0

No errors occurred

End of status report
